<svg height="512pt" viewBox="0 0 512 512" width="512pt" xmlns="http://www.w3.org/2000/svg"><path d="m118.179688 271.808594h122.820312v30.046875h-135.511719v60.050781h30v-30.050781h241.023438v30.050781h30v-60.050781h-135.511719v-30.046875h122.820312c42.742188 0 77.511719-34.773438 77.511719-77.511719 0-37.871094-27.507812-69.640625-63.589843-76.242187-7.851563-40.894532-43.628907-71.296876-86.550782-71.296876-9.433594 0-18.828125 1.527344-27.746094 4.476563-20.046874-31.523437-55.207031-51.234375-93.140624-51.234375-60.804688 0-110.273438 49.46875-110.273438 110.273438 0 3.855468.203125 7.710937.601562 11.542968-29.667968 11.1875-49.964843 39.65625-49.964843 72.480469 0 42.738281 34.769531 77.511719 77.511719 77.511719zm0 0"/><path d="m0 391.902344v120.097656h240.976562v-120.097656zm180.941406 75.050781h-120.90625v-30h120.90625zm0 0"/><path d="m271.023438 391.902344v120.097656h240.976562v-120.097656zm180.941406 75.050781h-120.90625v-30h120.90625zm0 0"/></svg>